<svg width="289" height="135" viewBox="0 0 289 135" fill="none" xmlns="http://www.w3.org/2000/svg">
<path d="M18.22 29.76C18.22 25.0467 19.8067 21.3367 22.98 18.63C26.1533 15.8767 30.2833 14.5 35.37 14.5C42.65 14.5 48.3667 17.2067 52.52 22.62L43 31.58C40.4333 28.5 37.75 26.96 34.95 26.96C33.8767 26.96 32.99 27.2167 32.29 27.73C31.59 28.1967 31.24 28.8733 31.24 29.76C31.24 30.32 31.4267 30.8567 31.8 31.37C32.1733 31.8367 32.8033 32.3267 33.69 32.84C34.5767 33.3533 35.4167 33.82 36.21 34.24C37.05 34.66 38.2167 35.22 39.71 35.92C41.25 36.62 42.5333 37.25 43.56 37.81C50.4667 41.3567 53.92 46.1633 53.92 52.23C53.92 56.8033 52.2867 60.56 49.02 63.5C45.8 66.3933 41.3667 67.84 35.72 67.84C27.4133 67.84 20.9267 64.83 16.26 58.81L25.85 49.71C26.9233 51.25 28.3933 52.5567 30.26 53.63C32.1267 54.7033 34.0167 55.24 35.93 55.24C37.47 55.24 38.6833 54.9133 39.57 54.26C40.4567 53.6067 40.9 52.7667 40.9 51.74C40.9 51.1333 40.69 50.5267 40.27 49.92C39.85 49.3133 39.1267 48.7067 38.1 48.1C37.0733 47.4467 36.21 46.9567 35.51 46.63C34.81 46.2567 33.6433 45.6967 32.01 44.95C30.3767 44.2033 29.28 43.69 28.72 43.41C21.72 40.05 18.22 35.5 18.22 29.76ZM78.5753 67H65.5553V15.34H86.2753C91.9686 15.34 96.612 16.95 100.205 20.17C103.799 23.39 105.595 28.15 105.595 34.45C105.595 40.75 103.682 45.65 99.8553 49.15C96.0286 52.65 91.3853 54.4 85.9253 54.4H78.5753V67ZM83.9653 26.82H78.5753V42.92H82.5653C85.552 42.92 87.932 42.1967 89.7053 40.75C91.5253 39.2567 92.4353 37.18 92.4353 34.52C92.4353 31.86 91.642 29.9233 90.0553 28.71C88.5153 27.45 86.4853 26.82 83.9653 26.82ZM168.12 41.24C168.12 48.7067 165.623 55.0067 160.63 60.14C155.683 65.2733 149.243 67.84 141.31 67.84C133.376 67.84 126.96 65.2733 122.06 60.14C117.16 55.0067 114.71 48.7067 114.71 41.24C114.71 33.7733 117.206 27.45 122.2 22.27C127.193 17.09 133.656 14.5 141.59 14.5C149.523 14.5 155.916 17.09 160.77 22.27C165.67 27.4033 168.12 33.7267 168.12 41.24ZM154.96 41.31C154.96 37.1567 153.653 33.7967 151.04 31.23C148.426 28.6633 145.206 27.38 141.38 27.38C137.553 27.38 134.333 28.6633 131.72 31.23C129.153 33.7967 127.87 37.1567 127.87 41.31C127.87 45.1833 129.176 48.4267 131.79 51.04C134.45 53.6533 137.646 54.96 141.38 54.96C145.113 54.96 148.31 53.6533 150.97 51.04C153.63 48.4267 154.96 45.1833 154.96 41.31ZM193.75 67H180.73V15.34H202.15C207.237 15.34 211.6 16.9033 215.24 20.03C218.927 23.1567 220.77 27.73 220.77 33.75C220.77 40.7033 218.203 45.9067 213.07 49.36L222.8 66.44L222.52 67H209.22L201.31 53H200.4H193.75V67ZM199.28 26.82H193.75V41.52H198.23C201.077 41.52 203.34 40.8433 205.02 39.49C206.747 38.1367 207.61 36.2933 207.61 33.96C207.61 31.6267 206.817 29.8533 205.23 28.64C203.643 27.4267 201.66 26.82 199.28 26.82ZM257.462 67H244.442V28.22H228.552V15.34H273.352V28.22H257.462V67Z" fill="white"/>
<rect x="1" y="1" width="287" height="80" stroke="white" stroke-width="2"/>
<path d="M47.2507 126V96.9091H65.4893V100.688H51.6399V109.551H64.5376V113.315H51.6399V122.222H65.6598V126H47.2507ZM82.6949 96.9091L90.7915 120.602H91.1182L99.2148 96.9091H103.959L93.4903 126H88.4193L77.9506 96.9091H82.6949ZM116.96 126V96.9091H135.199V100.688H121.349V109.551H134.247V113.315H121.349V122.222H135.369V126H116.96ZM173.342 96.9091V126H169.308L154.521 104.665H154.251V126H149.862V96.9091H153.924L168.725 118.273H168.995V96.9091H173.342ZM187.11 100.688V96.9091H209.624V100.688H200.547V126H196.172V100.688H187.11ZM239.266 104.551C239.114 103.206 238.489 102.165 237.391 101.426C236.292 100.678 234.91 100.304 233.243 100.304C232.05 100.304 231.018 100.493 230.146 100.872C229.275 101.241 228.598 101.753 228.115 102.406C227.642 103.05 227.405 103.784 227.405 104.608C227.405 105.299 227.566 105.896 227.888 106.398C228.219 106.9 228.65 107.321 229.18 107.662C229.72 107.993 230.298 108.273 230.913 108.5C231.529 108.718 232.121 108.898 232.689 109.04L235.53 109.778C236.458 110.006 237.41 110.313 238.385 110.702C239.36 111.09 240.265 111.601 241.098 112.236C241.931 112.87 242.604 113.656 243.115 114.594C243.636 115.531 243.896 116.653 243.896 117.96C243.896 119.608 243.47 121.071 242.618 122.349C241.775 123.628 240.549 124.636 238.939 125.375C237.339 126.114 235.402 126.483 233.129 126.483C230.951 126.483 229.067 126.137 227.476 125.446C225.885 124.755 224.64 123.775 223.74 122.506C222.84 121.227 222.343 119.712 222.249 117.96H226.652C226.737 119.011 227.078 119.887 227.675 120.588C228.281 121.279 229.053 121.795 229.99 122.136C230.937 122.468 231.974 122.634 233.101 122.634C234.341 122.634 235.445 122.439 236.411 122.051C237.386 121.653 238.153 121.104 238.712 120.403C239.27 119.693 239.55 118.865 239.55 117.918C239.55 117.056 239.304 116.35 238.811 115.801C238.328 115.252 237.67 114.797 236.837 114.438C236.013 114.078 235.08 113.76 234.038 113.486L230.601 112.548C228.271 111.914 226.425 110.981 225.061 109.75C223.707 108.519 223.03 106.89 223.03 104.864C223.03 103.187 223.484 101.724 224.393 100.474C225.303 99.2244 226.534 98.2538 228.087 97.5625C229.64 96.8617 231.392 96.5114 233.342 96.5114C235.312 96.5114 237.05 96.857 238.555 97.5483C240.071 98.2396 241.264 99.1913 242.135 100.403C243.006 101.606 243.461 102.989 243.499 104.551H239.266Z" fill="white"/>
</svg>
